<svg width="51" height="36" viewBox="0 0 51 36" fill="none" xmlns="http://www.w3.org/2000/svg">
<path d="M10.6452 26.1606C8.80031 26.1606 7.18869 25.6587 5.99411 24.8529V32.1194C5.99411 34.2329 6.18496 35.0811 7.57039 35.4204V36H0.388769V35.4204C1.85195 34.9963 1.92264 34.0773 1.92264 32.1194V11.7196C1.92264 10.3766 1.57628 10.0302 0 9.60611V9.02649L5.99411 7.71881V10.7512C7.18162 8.60238 9.87473 7.71881 11.755 7.71881C16.4838 7.71881 19.8626 11.4086 19.8626 17.0917C19.8696 23.1635 15.9113 26.1606 10.6452 26.1606ZM10.1504 9.02649C7.73297 9.02649 6.23444 10.8714 6.00118 13.3312V20.4422C6.26978 24.1319 8.38327 25.588 10.5745 25.588C13.2606 25.588 15.1478 23.5523 15.1478 17.5582C15.1408 11.4086 13.3737 9.02649 10.1504 9.02649Z" fill="#0E143F"/>
<path d="M31.7448 26.1606C29.8999 26.1606 28.2883 25.6587 27.0937 24.8529V32.1194C27.0937 34.2329 27.2845 35.0811 28.67 35.4204V36H21.4813V35.4204C22.9445 34.9963 23.0151 34.0773 23.0151 32.1194V11.7196C23.0151 10.3766 22.6688 10.0302 21.0925 9.60611V9.02649L27.0866 7.71881V10.7512C28.2741 8.60238 30.9672 7.71881 32.8475 7.71881C37.5763 7.71881 40.9551 11.4086 40.9551 17.0917C40.9621 23.1635 37.0038 26.1606 31.7448 26.1606ZM31.2429 9.02649C28.8255 9.02649 27.3269 10.8714 27.0937 13.3312V20.4422C27.3623 24.1319 29.4758 25.588 31.667 25.588C34.3531 25.588 36.2404 23.5523 36.2404 17.5582C36.2404 11.4086 34.4662 9.02649 31.2429 9.02649Z" fill="#0E143F"/>
<path d="M50.2219 25.8142H43.0756V25.2346C44.5388 24.7752 44.6095 23.6583 44.6095 21.7004V12.1013C44.6095 10.7936 44.2278 10.2564 42.6515 9.60611V9.02649L48.6456 7.71881V21.7074C48.6456 23.8209 48.8365 24.86 50.2219 25.2417V25.8142Z" fill="#0E143F"/>
<path d="M43.9592 2.30434C43.9592 1.03907 44.9558 0 46.2282 0C47.4934 0 48.5749 1.03907 48.5749 2.30434C48.5749 3.56961 47.5005 4.57333 46.2282 4.57333C44.9558 4.57333 43.9592 3.56961 43.9592 2.30434Z" fill="#1A8DFF"/>
</svg>
